<?xml version="1.0" standalone="no"?>
<!DOCTYPE svg PUBLIC "-//W3C//DTD SVG 20010904//EN"
 "http://www.w3.org/TR/2001/REC-SVG-20010904/DTD/svg10.dtd">
<svg version="1.0" xmlns="http://www.w3.org/2000/svg"
 width="256.000000pt" height="256.000000pt" viewBox="0 0 256.000000 256.000000"
 preserveAspectRatio="xMidYMid meet">

<g transform="translate(0.000000,256.000000) scale(0.100000,-0.100000)"
fill="#000000" stroke="none">
<path d="M1597 2064 c18 -37 33 -79 33 -94 0 -14 3 -30 7 -33 8 -9 63 42 63
58 0 11 -122 135 -132 135 -3 0 10 -30 29 -66z"/>
<path d="M1181 2094 c-133 -67 -157 -240 -47 -342 49 -45 96 -62 171 -62 149
-1 318 -99 405 -236 74 -117 95 -294 51 -423 -22 -62 -78 -162 -100 -175 -30
-19 -1 -26 106 -26 l117 0 -54 55 -55 55 55 55 55 55 148 -148 147 -147 -148
-148 -147 -147 -55 55 -54 55 54 55 54 55 -662 0 c-364 0 -662 -3 -662 -8 0
-4 150 -158 334 -341 l335 -334 103 6 c340 21 615 143 848 377 190 190 306
407 355 663 27 144 59 98 -347 504 l-363 363 -127 -127 -128 -128 -127 128
-128 127 47 47 48 47 35 -34 c37 -36 51 -35 41 2 -11 44 -46 89 -93 118 -63
40 -136 41 -212 4z"/>
<path d="M1183 1526 c-147 -48 -241 -164 -251 -310 l-4 -71 56 55 56 55 52
-53 53 -52 -150 -150 c-82 -82 -146 -153 -141 -157 12 -12 352 -16 449 -5 139
15 227 71 288 184 32 60 34 68 34 163 0 89 -3 106 -28 156 -55 113 -173 190
-301 196 -42 2 -88 -3 -113 -11z"/>
</g>
</svg>
